<svg id="visual" viewBox="0 0 900 600" width="900" height="600" xmlns="http://www.w3.org/2000/svg" xmlns:xlink="http://www.w3.org/1999/xlink" version="1.1"><path d="M0 293L18.8 293.2C37.7 293.3 75.3 293.7 112.8 289.5C150.3 285.3 187.7 276.7 225.2 273.8C262.7 271 300.3 274 337.8 284.7C375.3 295.3 412.7 313.7 450.2 326.3C487.7 339 525.3 346 562.8 343.3C600.3 340.7 637.7 328.3 675.2 313.5C712.7 298.7 750.3 281.3 787.8 282.8C825.3 284.3 862.7 304.7 881.3 314.8L900 325L900 0L881.3 0C862.7 0 825.3 0 787.8 0C750.3 0 712.7 0 675.2 0C637.7 0 600.3 0 562.8 0C525.3 0 487.7 0 450.2 0C412.7 0 375.3 0 337.8 0C300.3 0 262.7 0 225.2 0C187.7 0 150.3 0 112.8 0C75.3 0 37.7 0 18.8 0L0 0Z" fill="#6d949b" stroke-linecap="round" stroke-linejoin="miter"></path></svg>